<mxfile host="app.diagrams.net" modified="2023-08-02T10:29:48.131Z" agent="Mozilla/5.0 (X11; Linux x86_64) AppleWebKit/537.36 (KHTML, like Gecko) Chrome/114.0.0.0 Safari/537.36" etag="bFjh9_jRZSo3hhToOiEy" version="21.6.6" type="device">
  <diagram name="Page-1" id="qpBcqYqqgBRkhlTTzO9E">
    <mxGraphModel dx="2284" dy="1907" grid="1" gridSize="10" guides="1" tooltips="1" connect="1" arrows="1" fold="1" page="1" pageScale="1" pageWidth="850" pageHeight="1100" math="0" shadow="0">
      <root>
        <mxCell id="0" />
        <mxCell id="1" parent="0" />
        <mxCell id="xy38HAdLjRSqa7wOKrc2-1" value="" style="rounded=0;whiteSpace=wrap;html=1;movable=0;resizable=0;rotatable=0;deletable=0;editable=0;locked=1;connectable=0;" vertex="1" parent="1">
          <mxGeometry x="-160" y="-100" width="1220" height="960" as="geometry" />
        </mxCell>
        <mxCell id="xy38HAdLjRSqa7wOKrc2-11" value="" style="group" vertex="1" connectable="0" parent="1">
          <mxGeometry x="30" y="70" width="170" height="200" as="geometry" />
        </mxCell>
        <mxCell id="xy38HAdLjRSqa7wOKrc2-2" value="" style="rounded=1;whiteSpace=wrap;html=1;" vertex="1" parent="xy38HAdLjRSqa7wOKrc2-11">
          <mxGeometry width="170" height="200" as="geometry" />
        </mxCell>
        <mxCell id="xy38HAdLjRSqa7wOKrc2-4" value="&lt;b&gt;&lt;font style=&quot;font-size: 20px;&quot;&gt;Frontend&lt;/font&gt;&lt;/b&gt;" style="text;html=1;strokeColor=none;fillColor=none;align=center;verticalAlign=middle;whiteSpace=wrap;rounded=0;" vertex="1" parent="xy38HAdLjRSqa7wOKrc2-11">
          <mxGeometry x="55" y="40" width="60" height="30" as="geometry" />
        </mxCell>
        <mxCell id="xy38HAdLjRSqa7wOKrc2-6" value="built with Flask Template&amp;nbsp;" style="text;html=1;strokeColor=none;fillColor=none;align=center;verticalAlign=middle;whiteSpace=wrap;rounded=0;" vertex="1" parent="xy38HAdLjRSqa7wOKrc2-11">
          <mxGeometry x="20" y="120" width="130" height="30" as="geometry" />
        </mxCell>
        <mxCell id="xy38HAdLjRSqa7wOKrc2-12" value="" style="group" vertex="1" connectable="0" parent="1">
          <mxGeometry x="390" y="70" width="170" height="200" as="geometry" />
        </mxCell>
        <mxCell id="xy38HAdLjRSqa7wOKrc2-8" value="" style="rounded=1;whiteSpace=wrap;html=1;" vertex="1" parent="xy38HAdLjRSqa7wOKrc2-12">
          <mxGeometry width="170" height="200" as="geometry" />
        </mxCell>
        <mxCell id="xy38HAdLjRSqa7wOKrc2-9" value="&lt;b&gt;&lt;font style=&quot;font-size: 20px;&quot;&gt;Backend&lt;/font&gt;&lt;/b&gt;" style="text;html=1;strokeColor=none;fillColor=none;align=center;verticalAlign=middle;whiteSpace=wrap;rounded=0;" vertex="1" parent="xy38HAdLjRSqa7wOKrc2-12">
          <mxGeometry x="55" y="40" width="60" height="30" as="geometry" />
        </mxCell>
        <mxCell id="xy38HAdLjRSqa7wOKrc2-10" value="built with Python Flask" style="text;html=1;strokeColor=none;fillColor=none;align=center;verticalAlign=middle;whiteSpace=wrap;rounded=0;" vertex="1" parent="xy38HAdLjRSqa7wOKrc2-12">
          <mxGeometry x="20" y="120" width="130" height="30" as="geometry" />
        </mxCell>
        <mxCell id="xy38HAdLjRSqa7wOKrc2-22" value="using ghevaluator to compare workflows" style="text;html=1;strokeColor=none;fillColor=none;align=center;verticalAlign=middle;whiteSpace=wrap;rounded=0;" vertex="1" parent="xy38HAdLjRSqa7wOKrc2-12">
          <mxGeometry x="20" y="150" width="130" height="30" as="geometry" />
        </mxCell>
        <mxCell id="xy38HAdLjRSqa7wOKrc2-13" value="" style="endArrow=classic;startArrow=classic;html=1;rounded=0;entryX=0;entryY=0.5;entryDx=0;entryDy=0;" edge="1" parent="1" target="xy38HAdLjRSqa7wOKrc2-8">
          <mxGeometry width="50" height="50" relative="1" as="geometry">
            <mxPoint x="200" y="170" as="sourcePoint" />
            <mxPoint x="310" y="130" as="targetPoint" />
          </mxGeometry>
        </mxCell>
        <mxCell id="xy38HAdLjRSqa7wOKrc2-14" value="User auth &amp;amp; Game tracking&lt;br&gt;requests &amp;amp; reponses" style="text;html=1;strokeColor=none;fillColor=none;align=center;verticalAlign=middle;whiteSpace=wrap;rounded=0;" vertex="1" parent="1">
          <mxGeometry x="210" y="120" width="170" height="30" as="geometry" />
        </mxCell>
        <mxCell id="xy38HAdLjRSqa7wOKrc2-19" value="" style="endArrow=classic;startArrow=classic;html=1;rounded=0;entryX=0;entryY=0.5;entryDx=0;entryDy=0;" edge="1" parent="1">
          <mxGeometry width="50" height="50" relative="1" as="geometry">
            <mxPoint x="560" y="170" as="sourcePoint" />
            <mxPoint x="750" y="170" as="targetPoint" />
          </mxGeometry>
        </mxCell>
        <mxCell id="xy38HAdLjRSqa7wOKrc2-20" value="question retrival and storing" style="text;html=1;strokeColor=none;fillColor=none;align=center;verticalAlign=middle;whiteSpace=wrap;rounded=0;" vertex="1" parent="1">
          <mxGeometry x="570" y="120" width="170" height="30" as="geometry" />
        </mxCell>
        <mxCell id="xy38HAdLjRSqa7wOKrc2-21" value="" style="group" vertex="1" connectable="0" parent="1">
          <mxGeometry x="750" y="70" width="160" height="192.5" as="geometry" />
        </mxCell>
        <mxCell id="xy38HAdLjRSqa7wOKrc2-16" value="" style="shape=cylinder3;whiteSpace=wrap;html=1;boundedLbl=1;backgroundOutline=1;size=15;" vertex="1" parent="xy38HAdLjRSqa7wOKrc2-21">
          <mxGeometry width="160" height="192.5" as="geometry" />
        </mxCell>
        <mxCell id="xy38HAdLjRSqa7wOKrc2-17" value="&lt;b&gt;&lt;font style=&quot;font-size: 20px;&quot;&gt;Database&lt;/font&gt;&lt;/b&gt;" style="text;html=1;strokeColor=none;fillColor=none;align=center;verticalAlign=middle;whiteSpace=wrap;rounded=0;" vertex="1" parent="xy38HAdLjRSqa7wOKrc2-21">
          <mxGeometry x="50" y="36.25" width="60" height="30" as="geometry" />
        </mxCell>
        <mxCell id="xy38HAdLjRSqa7wOKrc2-18" value="built with PostgreSQL" style="text;html=1;strokeColor=none;fillColor=none;align=center;verticalAlign=middle;whiteSpace=wrap;rounded=0;" vertex="1" parent="xy38HAdLjRSqa7wOKrc2-21">
          <mxGeometry x="50" y="116.25" width="60" height="30" as="geometry" />
        </mxCell>
        <mxCell id="xy38HAdLjRSqa7wOKrc2-26" value="" style="group" vertex="1" connectable="0" parent="1">
          <mxGeometry x="770" y="380" width="120" height="140" as="geometry" />
        </mxCell>
        <mxCell id="xy38HAdLjRSqa7wOKrc2-23" value="" style="shape=note;whiteSpace=wrap;html=1;backgroundOutline=1;darkOpacity=0.05;" vertex="1" parent="xy38HAdLjRSqa7wOKrc2-26">
          <mxGeometry width="120" height="140" as="geometry" />
        </mxCell>
        <mxCell id="xy38HAdLjRSqa7wOKrc2-24" value="&lt;b&gt;&lt;font style=&quot;font-size: 20px;&quot;&gt;YAML files&lt;/font&gt;&lt;/b&gt;" style="text;html=1;strokeColor=none;fillColor=none;align=center;verticalAlign=middle;whiteSpace=wrap;rounded=0;" vertex="1" parent="xy38HAdLjRSqa7wOKrc2-26">
          <mxGeometry x="5" y="30" width="110" height="30" as="geometry" />
        </mxCell>
        <mxCell id="xy38HAdLjRSqa7wOKrc2-25" value="Storing the questions" style="text;html=1;strokeColor=none;fillColor=none;align=center;verticalAlign=middle;whiteSpace=wrap;rounded=0;" vertex="1" parent="xy38HAdLjRSqa7wOKrc2-26">
          <mxGeometry x="10" y="80" width="100" height="30" as="geometry" />
        </mxCell>
        <mxCell id="xy38HAdLjRSqa7wOKrc2-27" value="" style="endArrow=classic;html=1;rounded=0;exitX=0.5;exitY=0;exitDx=0;exitDy=0;exitPerimeter=0;entryX=0.5;entryY=1;entryDx=0;entryDy=0;entryPerimeter=0;" edge="1" parent="1" source="xy38HAdLjRSqa7wOKrc2-23" target="xy38HAdLjRSqa7wOKrc2-16">
          <mxGeometry width="50" height="50" relative="1" as="geometry">
            <mxPoint x="810" y="370" as="sourcePoint" />
            <mxPoint x="830" y="270" as="targetPoint" />
          </mxGeometry>
        </mxCell>
        <mxCell id="xy38HAdLjRSqa7wOKrc2-28" value="Using init_yaml_to_db.py&lt;br&gt;to populate the database" style="text;html=1;strokeColor=none;fillColor=none;align=center;verticalAlign=middle;whiteSpace=wrap;rounded=0;" vertex="1" parent="1">
          <mxGeometry x="680" y="310" width="140" height="30" as="geometry" />
        </mxCell>
      </root>
    </mxGraphModel>
  </diagram>
</mxfile>
